<svg width="34" height="34" viewBox="0 0 34 34" fill="none" xmlns="http://www.w3.org/2000/svg"><path d="M27.2985 7.55074C25.4144 6.6724 23.3744 6.0349 21.2494 5.66657C21.2307 5.66597 21.2122 5.66947 21.1951 5.67681C21.1779 5.68416 21.1626 5.69517 21.1502 5.70907C20.8952 6.17657 20.5977 6.78574 20.3994 7.25324C18.1454 6.91324 15.8533 6.91324 13.5994 7.25324C13.401 6.77157 13.1035 6.17657 12.8344 5.70907C12.8202 5.68074 12.7777 5.66657 12.7352 5.66657C10.6102 6.0349 8.58435 6.6724 6.68602 7.55074C6.67185 7.55074 6.65769 7.5649 6.64352 7.57907C2.79019 13.3449 1.72769 18.9549 2.25185 24.5082C2.25185 24.5366 2.26602 24.5649 2.29435 24.5791C4.84435 26.4491 7.29519 27.5824 9.71769 28.3332C9.76019 28.3474 9.80269 28.3332 9.81685 28.3049C10.3835 27.5257 10.8935 26.7041 11.3327 25.8399C11.361 25.7832 11.3327 25.7266 11.276 25.7124C10.4685 25.4007 9.70352 25.0324 8.95269 24.6074C8.89602 24.5791 8.89602 24.4941 8.93852 24.4516C9.09435 24.3382 9.25019 24.2107 9.40602 24.0974C9.43435 24.0691 9.47685 24.0691 9.50519 24.0832C14.3785 26.3074 19.6344 26.3074 24.451 24.0832C24.4794 24.0691 24.5219 24.0691 24.5502 24.0974C24.706 24.2249 24.8619 24.3382 25.0177 24.4657C25.0744 24.5082 25.0743 24.5932 25.0035 24.6216C24.2668 25.0607 23.4877 25.4149 22.6802 25.7266C22.6235 25.7407 22.6094 25.8116 22.6235 25.8541C23.0769 26.7182 23.5869 27.5399 24.1394 28.3191C24.1819 28.3332 24.2244 28.3474 24.2669 28.3332C26.7035 27.5824 29.1543 26.4491 31.7043 24.5791C31.7327 24.5649 31.7468 24.5366 31.7468 24.5082C32.3702 18.0907 30.7127 12.5232 27.3552 7.57907C27.341 7.5649 27.3269 7.55074 27.2985 7.55074ZM12.0694 21.1224C10.6102 21.1224 9.39185 19.7766 9.39185 18.1191C9.39185 16.4616 10.5819 15.1157 12.0694 15.1157C13.571 15.1157 14.761 16.4757 14.7469 18.1191C14.7469 19.7766 13.5569 21.1224 12.0694 21.1224ZM21.9435 21.1224C20.4844 21.1224 19.266 19.7766 19.266 18.1191C19.266 16.4616 20.456 15.1157 21.9435 15.1157C23.4452 15.1157 24.6352 16.4757 24.621 18.1191C24.621 19.7766 23.4452 21.1224 21.9435 21.1224Z" fill="white"></path></svg>