<svg width="24" height="24" viewBox="0 0 24 24" fill="none" xmlns="http://www.w3.org/2000/svg" color="#F0DCC0"><path d="M15.0451 7.11157C14.5956 6.64666 13.8538 6.62804 13.381 7.06761L9.0056 11.1362L9.00446 11.1372C8.99516 11.1458 8.98596 11.1545 8.97688 11.1634C8.60898 11.5242 8.52671 12.0695 8.74355 12.5133C8.80128 12.6315 8.87954 12.7411 8.97679 12.8365C8.9861 12.8456 8.99569 12.8547 9.00481 12.8631L9.00601 12.8642L13.381 16.9324C13.8538 17.372 14.5956 17.3533 15.0451 16.8884C15.5025 16.4153 15.4812 15.6629 15.0002 15.2157L11.542 12L15.0002 8.78435C15.4812 8.33708 15.5025 7.58472 15.0451 7.11157Z" fill="currentColor"></path></svg>